<!-- Simple SVG icons for the application -->
<!-- You can replace these with your own icons as needed -->

<!-- Dashboard Icon -->
<svg id="icon-dashboard" xmlns="http://www.w3.org/2000/svg" width="20" height="20" viewBox="0 0 20 20" fill="none">
    <rect x="3" y="3" width="6" height="6" rx="1" stroke="currentColor" stroke-width="1.5"/>
    <rect x="11" y="3" width="6" height="6" rx="1" stroke="currentColor" stroke-width="1.5"/>
    <rect x="3" y="11" width="6" height="6" rx="1" stroke="currentColor" stroke-width="1.5"/>
    <rect x="11" y="11" width="6" height="6" rx="1" stroke="currentColor" stroke-width="1.5"/>
</svg>

<!-- Team Icon -->
<svg id="icon-team" xmlns="http://www.w3.org/2000/svg" width="20" height="20" viewBox="0 0 20 20" fill="none">
    <circle cx="10" cy="6" r="3" stroke="currentColor" stroke-width="1.5"/>
    <path d="M5 14c0-2.21 2.24-4 5-4s5 1.79 5 4" stroke="currentColor" stroke-width="1.5" stroke-linecap="round"/>
</svg>

<!-- Task Icon -->
<svg id="icon-task" xmlns="http://www.w3.org/2000/svg" width="20" height="20" viewBox="0 0 20 20" fill="none">
    <rect x="4" y="4" width="12" height="12" rx="2" stroke="currentColor" stroke-width="1.5"/>
    <path d="M7 10l2 2 4-4" stroke="currentColor" stroke-width="1.5" stroke-linecap="round" stroke-linejoin="round"/>
</svg>

<!-- Plus Icon -->
<svg id="icon-plus" xmlns="http://www.w3.org/2000/svg" width="16" height="16" viewBox="0 0 16 16" fill="none">
    <path d="M8 3v10M3 8h10" stroke="currentColor" stroke-width="1.5" stroke-linecap="round"/>
</svg>

<!-- Logout Icon -->
<svg id="icon-logout" xmlns="http://www.w3.org/2000/svg" width="20" height="20" viewBox="0 0 20 20" fill="none">
    <path d="M7 3H5a2 2 0 00-2 2v10a2 2 0 002 2h2M13 10l4-4m0 0l-4-4m4 4H7" stroke="currentColor" stroke-width="1.5" stroke-linecap="round" stroke-linejoin="round"/>
</svg>
